<svg height="40" viewBox="-1.378 -1.263 200.692 79.156">
  <g>
    <path d="M 104.59 68.555 Q 103.369 68.555 102.441 68.36 A 14.324 14.324 0 0 1 100.684 71.07 A 11.573 11.573 0 0 1 98.315 73.242 A 11.328 11.328 0 0 1 95.621 74.603 A 12.788 12.788 0 0 1 95.313 74.707 Q 93.652 75.244 91.699 75.244 A 11.362 11.362 0 0 1 88.991 74.932 A 9.794 9.794 0 0 1 87.5 74.439 A 10.151 10.151 0 0 1 84.18 72.193 A 9.88 9.88 0 0 1 82.161 69.162 A 11.474 11.474 0 0 1 81.982 68.726 A 11.716 11.716 0 0 1 81.263 65.599 A 14.242 14.242 0 0 1 81.201 64.258 A 14.701 14.701 0 0 1 81.432 61.591 A 10.861 10.861 0 0 1 82.324 58.814 A 17.528 17.528 0 0 1 83.513 56.72 A 13.063 13.063 0 0 1 84.912 54.956 Q 86.377 53.418 87.842 52.661 A 12.768 12.768 0 0 1 88.528 52.33 Q 89.191 52.037 89.658 51.946 A 2.006 2.006 0 0 1 90.039 51.905 Q 90.617 51.905 90.993 52.117 A 1.228 1.228 0 0 1 91.284 52.344 A 1.483 1.483 0 0 1 91.657 53.077 A 2.153 2.153 0 0 1 91.699 53.516 Q 91.699 54.205 91.346 54.608 A 1.295 1.295 0 0 1 91.187 54.761 Q 90.746 55.118 90.107 55.456 A 10.167 10.167 0 0 1 89.893 55.567 A 7.547 7.547 0 0 0 89.19 55.969 Q 88.843 56.193 88.478 56.472 A 13.013 13.013 0 0 0 88.232 56.665 A 7.969 7.969 0 0 0 87.194 57.679 A 10.075 10.075 0 0 0 86.597 58.448 A 8.805 8.805 0 0 0 85.793 59.861 A 11.286 11.286 0 0 0 85.352 60.987 Q 84.863 62.451 84.863 64.258 A 9.379 9.379 0 0 0 85.105 66.415 A 8.308 8.308 0 0 0 85.352 67.261 A 7 7 0 0 0 86.274 69.051 A 6.355 6.355 0 0 0 86.768 69.654 Q 87.695 70.655 88.965 71.216 Q 90.234 71.778 91.797 71.778 A 9.885 9.885 0 0 0 93.826 71.58 Q 95.204 71.291 96.27 70.58 A 6.267 6.267 0 0 0 96.411 70.484 A 8.586 8.586 0 0 0 99.219 67.188 A 12.754 12.754 0 0 1 94.482 62.891 Q 92.627 60.108 92.627 56.641 A 9.456 9.456 0 0 1 92.816 54.698 Q 93.131 53.199 93.97 52.1 A 4.516 4.516 0 0 1 95.362 50.868 Q 96.308 50.342 97.51 50.342 A 5.152 5.152 0 0 1 100 50.977 Q 101.172 51.612 102.075 52.979 Q 102.836 54.13 103.337 55.834 A 16.754 16.754 0 0 1 103.516 56.494 Q 103.972 58.321 104.041 60.748 A 31.017 31.017 0 0 1 104.053 61.621 Q 104.053 63.184 103.662 64.893 A 3.558 3.558 0 0 0 104.248 64.942 L 104.883 64.942 A 12.117 12.117 0 0 0 106.458 64.844 A 9.105 9.105 0 0 0 107.861 64.551 A 7.802 7.802 0 0 0 110.254 63.379 A 7.989 7.989 0 0 0 111.685 62.029 A 9.641 9.641 0 0 0 112.183 61.377 Q 113.037 60.157 113.818 58.545 Q 113.965 58.252 114.453 57.984 A 2.244 2.244 0 0 1 114.612 57.903 A 69.033 69.033 0 0 1 114.111 54.566 A 97.72 97.72 0 0 1 113.5 47.941 A 88.673 88.673 0 0 1 113.452 47.022 A 174.499 174.499 0 0 1 113.335 43.976 Q 113.295 42.585 113.285 41.341 A 99.777 99.777 0 0 1 113.281 40.528 A 135.734 135.734 0 0 1 113.432 34.21 A 150.927 150.927 0 0 1 113.55 32.032 Q 113.818 27.637 114.404 23.438 A 86.399 86.399 0 0 1 115.462 17.386 A 75.251 75.251 0 0 1 115.894 15.479 A 46.79 46.79 0 0 1 116.816 12.158 Q 117.31 10.612 117.878 9.267 A 28.538 28.538 0 0 1 118.042 8.887 A 19.784 19.784 0 0 1 119.103 6.798 Q 119.701 5.784 120.367 4.986 A 10.594 10.594 0 0 1 120.898 4.395 A 5.907 5.907 0 0 1 122.273 3.324 A 4.654 4.654 0 0 1 124.561 2.735 Q 126.172 2.735 127.466 3.491 Q 128.676 4.199 129.523 5.74 A 8.881 8.881 0 0 1 129.639 5.957 A 11.324 11.324 0 0 1 130.266 7.449 Q 130.708 8.734 131.006 10.401 Q 131.377 12.481 131.466 15.267 A 57.237 57.237 0 0 1 131.494 17.09 A 50.876 50.876 0 0 1 130.817 25.234 A 57.914 57.914 0 0 1 130.469 27.173 A 85.296 85.296 0 0 1 127.686 37.647 A 106.787 106.787 0 0 1 123.535 48.169 A 153.76 153.76 0 0 1 118.408 58.399 Q 119.209 62.468 120.368 65.392 A 20.698 20.698 0 0 0 121.68 68.14 A 10.387 10.387 0 0 0 122.826 69.768 Q 123.552 70.601 124.364 71.071 A 4.413 4.413 0 0 0 126.611 71.68 A 5.176 5.176 0 0 0 129.112 71.018 A 7.408 7.408 0 0 0 130.371 70.142 Q 132.178 68.604 133.691 66.504 Q 135.205 64.405 136.353 62.232 Q 137.5 60.059 138.135 58.741 Q 138.379 58.252 138.818 57.984 A 1.836 1.836 0 0 1 139.067 57.857 A 69.033 69.033 0 0 1 138.574 54.566 A 97.72 97.72 0 0 1 137.963 47.941 A 88.673 88.673 0 0 1 137.915 47.022 A 174.499 174.499 0 0 1 137.798 43.976 Q 137.758 42.585 137.748 41.341 A 99.777 99.777 0 0 1 137.744 40.528 A 135.734 135.734 0 0 1 137.895 34.21 A 150.927 150.927 0 0 1 138.013 32.032 Q 138.281 27.637 138.867 23.438 A 86.399 86.399 0 0 1 139.925 17.386 A 75.251 75.251 0 0 1 140.356 15.479 A 46.79 46.79 0 0 1 141.278 12.158 Q 141.773 10.612 142.341 9.267 A 28.538 28.538 0 0 1 142.505 8.887 A 19.784 19.784 0 0 1 143.566 6.798 Q 144.164 5.784 144.83 4.986 A 10.594 10.594 0 0 1 145.361 4.395 A 5.907 5.907 0 0 1 146.736 3.324 A 4.654 4.654 0 0 1 149.023 2.735 Q 150.635 2.735 151.929 3.491 Q 153.139 4.199 153.986 5.74 A 8.881 8.881 0 0 1 154.102 5.957 A 11.324 11.324 0 0 1 154.729 7.449 Q 155.171 8.734 155.469 10.401 Q 155.84 12.481 155.929 15.267 A 57.237 57.237 0 0 1 155.957 17.09 A 50.876 50.876 0 0 1 155.28 25.234 A 57.914 57.914 0 0 1 154.932 27.173 A 85.296 85.296 0 0 1 152.148 37.647 A 106.787 106.787 0 0 1 147.998 48.169 A 153.76 153.76 0 0 1 142.871 58.399 Q 143.672 62.468 144.831 65.392 A 20.698 20.698 0 0 0 146.143 68.14 A 10.387 10.387 0 0 0 147.288 69.768 Q 148.015 70.601 148.827 71.071 A 4.413 4.413 0 0 0 151.074 71.68 A 5.176 5.176 0 0 0 153.575 71.018 A 7.408 7.408 0 0 0 154.834 70.142 Q 156.641 68.604 158.154 66.504 Q 159.668 64.405 160.815 62.232 Q 161.963 60.059 162.598 58.741 A 1.871 1.871 0 0 1 163.026 58.173 A 1.772 1.772 0 0 1 163.261 57.996 A 17.528 17.528 0 0 1 164.03 56.72 A 13.063 13.063 0 0 1 165.43 54.956 Q 166.895 53.418 168.359 52.661 A 12.768 12.768 0 0 1 169.046 52.33 Q 169.709 52.037 170.176 51.946 A 2.006 2.006 0 0 1 170.557 51.905 Q 171.134 51.905 171.511 52.117 A 1.228 1.228 0 0 1 171.802 52.344 A 1.483 1.483 0 0 1 172.174 53.077 A 2.153 2.153 0 0 1 172.217 53.516 Q 172.217 54.205 171.864 54.608 A 1.295 1.295 0 0 1 171.704 54.761 Q 171.264 55.118 170.625 55.456 A 10.167 10.167 0 0 1 170.41 55.567 A 7.547 7.547 0 0 0 169.708 55.969 Q 169.36 56.193 168.995 56.472 A 13.013 13.013 0 0 0 168.75 56.665 A 7.969 7.969 0 0 0 167.712 57.679 A 10.075 10.075 0 0 0 167.114 58.448 A 8.805 8.805 0 0 0 166.31 59.861 A 11.286 11.286 0 0 0 165.869 60.987 Q 165.381 62.451 165.381 64.258 A 9.379 9.379 0 0 0 165.622 66.415 A 8.308 8.308 0 0 0 165.869 67.261 A 7 7 0 0 0 166.792 69.051 A 6.355 6.355 0 0 0 167.285 69.654 Q 168.213 70.655 169.482 71.216 Q 170.752 71.778 172.314 71.778 A 9.885 9.885 0 0 0 174.344 71.58 Q 175.721 71.291 176.788 70.58 A 6.267 6.267 0 0 0 176.929 70.484 A 8.586 8.586 0 0 0 179.736 67.188 A 12.754 12.754 0 0 1 175 62.891 Q 173.145 60.108 173.145 56.641 A 9.456 9.456 0 0 1 173.333 54.698 Q 173.648 53.199 174.487 52.1 A 4.516 4.516 0 0 1 175.88 50.868 Q 176.826 50.342 178.027 50.342 A 5.152 5.152 0 0 1 180.518 50.977 Q 181.689 51.612 182.593 52.979 Q 183.353 54.13 183.854 55.834 A 16.754 16.754 0 0 1 184.033 56.494 Q 184.49 58.321 184.558 60.748 A 31.017 31.017 0 0 1 184.57 61.621 Q 184.57 63.184 184.18 64.893 A 3.558 3.558 0 0 0 184.766 64.942 L 185.4 64.942 A 12.117 12.117 0 0 0 186.975 64.844 A 9.105 9.105 0 0 0 188.379 64.551 A 7.802 7.802 0 0 0 190.772 63.379 A 7.989 7.989 0 0 0 192.202 62.029 A 9.641 9.641 0 0 0 192.7 61.377 Q 193.555 60.157 194.336 58.545 Q 194.482 58.252 194.971 57.984 A 2.244 2.244 0 0 1 195.474 57.778 A 1.831 1.831 0 0 1 195.947 57.715 A 1.6 1.6 0 0 1 196.785 57.957 A 2.278 2.278 0 0 1 197.144 58.228 A 1.698 1.698 0 0 1 197.7 59.411 A 2.324 2.324 0 0 1 197.705 59.571 A 1.83 1.83 0 0 1 197.658 59.973 Q 197.617 60.156 197.54 60.352 A 3.231 3.231 0 0 1 197.51 60.425 A 16.093 16.093 0 0 1 197.314 60.871 A 13.009 13.009 0 0 1 197.119 61.28 A 20.007 20.007 0 0 1 195.19 64.087 Q 194.092 65.43 192.603 66.431 A 12.64 12.64 0 0 1 189.941 67.784 A 14.499 14.499 0 0 1 189.258 68.018 Q 187.402 68.604 185.107 68.555 Q 183.887 68.555 182.959 68.36 A 14.324 14.324 0 0 1 181.201 71.07 A 11.573 11.573 0 0 1 178.833 73.242 A 11.328 11.328 0 0 1 176.139 74.603 A 12.788 12.788 0 0 1 175.83 74.707 Q 174.17 75.244 172.217 75.244 A 11.362 11.362 0 0 1 169.509 74.932 A 9.794 9.794 0 0 1 168.018 74.439 A 10.151 10.151 0 0 1 164.697 72.193 A 9.88 9.88 0 0 1 162.679 69.162 A 11.474 11.474 0 0 1 162.5 68.726 A 11.716 11.716 0 0 1 162.064 67.318 A 37.44 37.44 0 0 1 160.607 69.351 A 41.023 41.023 0 0 1 160.449 69.556 A 20.582 20.582 0 0 1 157.69 72.486 A 14.157 14.157 0 0 1 154.628 74.531 A 13.31 13.31 0 0 1 154.517 74.585 A 8.213 8.213 0 0 1 150.928 75.391 A 7.919 7.919 0 0 1 148.01 74.866 A 7.323 7.323 0 0 1 145.898 73.584 A 13.575 13.575 0 0 1 143.575 70.965 A 17.71 17.71 0 0 1 142.334 68.848 A 28.449 28.449 0 0 1 140.792 65.085 A 36.264 36.264 0 0 1 140.163 62.965 A 116.087 116.087 0 0 1 140.112 63.062 A 48.871 48.871 0 0 1 139.019 65.032 A 58.183 58.183 0 0 1 138.281 66.26 A 37.44 37.44 0 0 1 136.144 69.351 A 41.023 41.023 0 0 1 135.986 69.556 A 20.582 20.582 0 0 1 133.228 72.486 A 14.157 14.157 0 0 1 130.165 74.531 A 13.31 13.31 0 0 1 130.054 74.585 A 8.213 8.213 0 0 1 126.465 75.391 A 7.919 7.919 0 0 1 123.548 74.866 A 7.323 7.323 0 0 1 121.436 73.584 A 13.575 13.575 0 0 1 119.112 70.965 A 17.71 17.71 0 0 1 117.871 68.848 A 28.449 28.449 0 0 1 116.33 65.085 A 36.264 36.264 0 0 1 115.654 62.787 A 20.007 20.007 0 0 1 114.673 64.087 Q 113.574 65.43 112.085 66.431 A 12.64 12.64 0 0 1 109.423 67.784 A 14.499 14.499 0 0 1 108.74 68.018 Q 106.885 68.604 104.59 68.555 Z M 86.427 31.659 A 26.668 26.668 0 0 0 87.061 25.733 A 26.464 26.464 0 0 0 86.932 23.101 A 21.402 21.402 0 0 0 84.473 14.917 A 23.179 23.179 0 0 0 83.704 13.607 A 24.064 24.064 0 0 0 77.222 6.836 A 30.636 30.636 0 0 0 72.361 4.026 A 39.151 39.151 0 0 0 66.064 1.758 A 48.384 48.384 0 0 0 60.139 0.556 A 59.988 59.988 0 0 0 51.807 0 A 83.525 83.525 0 0 0 51.365 0.001 A 76.232 76.232 0 0 0 38.135 1.197 A 78.719 78.719 0 0 0 35.592 1.701 A 69.004 69.004 0 0 0 25.781 4.566 Q 20.02 6.739 15.283 9.79 A 47.239 47.239 0 0 0 12.454 11.76 A 39.325 39.325 0 0 0 7.153 16.529 A 33.026 33.026 0 0 0 6.13 17.694 A 28.619 28.619 0 0 0 1.88 24.439 A 21.332 21.332 0 0 0 0 33.203 A 21.086 21.086 0 0 0 0.146 35.722 A 16.75 16.75 0 0 0 1.489 40.65 A 19.454 19.454 0 0 0 1.583 40.855 A 17.081 17.081 0 0 0 5.493 46.265 A 17.278 17.278 0 0 0 11.353 49.805 A 20.277 20.277 0 0 0 18.359 51.026 A 36.103 36.103 0 0 0 18.609 51.025 Q 20.473 51.012 22.144 50.806 A 22.535 22.535 0 0 0 25.488 50.147 A 42.458 42.458 0 0 0 26.348 49.895 Q 27.61 49.511 28.703 49.088 A 23.131 23.131 0 0 0 30.786 48.169 A 37.15 37.15 0 0 0 30.982 48.069 Q 32.347 47.369 33.289 46.739 A 11.221 11.221 0 0 0 34.106 46.143 A 277.499 277.499 0 0 0 34.232 46.041 Q 35.123 45.32 35.311 45.155 A 0.976 0.976 0 0 0 35.352 45.117 Q 35.938 44.629 35.938 43.799 A 1.709 1.709 0 0 0 35.767 43.044 A 1.993 1.993 0 0 0 35.376 42.505 Q 34.814 41.944 34.082 41.944 A 1.74 1.74 0 0 0 33.418 42.07 A 1.836 1.836 0 0 0 32.813 42.481 A 0.445 0.445 0 0 1 32.799 42.494 Q 32.678 42.604 31.969 43.156 A 147.947 147.947 0 0 1 31.738 43.335 A 7.453 7.453 0 0 1 31.647 43.405 Q 30.678 44.132 28.931 44.971 A 18.431 18.431 0 0 1 28.223 45.292 Q 26.606 45.986 24.439 46.582 A 16.901 16.901 0 0 1 24.35 46.606 Q 21.721 47.315 18.359 47.315 Q 15.479 47.315 12.842 46.436 A 13.394 13.394 0 0 1 8.179 43.775 A 12.412 12.412 0 0 1 7.103 42.705 A 13.582 13.582 0 0 1 4.932 39.356 Q 3.711 36.719 3.711 33.203 A 17.977 17.977 0 0 1 5.469 25.464 A 23.995 23.995 0 0 1 6.72 23.147 A 27.429 27.429 0 0 1 10.376 18.457 A 34.396 34.396 0 0 1 13.144 15.888 A 42.069 42.069 0 0 1 17.944 12.451 A 47.94 47.94 0 0 1 20.505 10.975 A 55.083 55.083 0 0 1 27.734 7.764 A 61.926 61.926 0 0 1 30.467 6.842 A 70.105 70.105 0 0 1 39.233 4.737 A 73.267 73.267 0 0 1 51.904 3.662 A 59.765 59.765 0 0 1 57.045 3.877 A 47.514 47.514 0 0 1 64.624 5.127 A 36.66 36.66 0 0 1 69.059 6.543 A 28.212 28.212 0 0 1 74.585 9.424 A 23.789 23.789 0 0 1 75.351 9.966 A 20.342 20.342 0 0 1 81.079 16.358 A 17.273 17.273 0 0 1 82.705 20.315 A 20.44 20.44 0 0 1 83.398 25.733 A 24.124 24.124 0 0 1 83.193 28.928 A 18.865 18.865 0 0 1 81.397 34.912 Q 79.395 38.916 75.781 41.675 A 22.669 22.669 0 0 1 72.072 43.966 A 28.377 28.377 0 0 1 67.09 45.85 A 36.787 36.787 0 0 1 62.354 46.83 A 46.409 46.409 0 0 1 55.859 47.266 A 2.255 2.255 0 0 0 55.835 47.266 A 1.789 1.789 0 0 0 54.541 47.803 A 2.212 2.212 0 0 0 54.524 47.82 A 1.732 1.732 0 0 0 54.004 49.073 A 2.326 2.326 0 0 0 54.048 49.536 A 1.496 1.496 0 0 0 54.614 50.464 A 2.215 2.215 0 0 0 55.235 50.797 A 2.495 2.495 0 0 0 56.055 50.928 Q 62.939 50.928 68.652 49.195 A 34.22 34.22 0 0 0 72.071 47.961 A 27.566 27.566 0 0 0 78.467 44.214 A 22.333 22.333 0 0 0 84.814 36.304 A 21.812 21.812 0 0 0 86.427 31.659 Z M 50.732 40.381 L 50.732 46.533 A 61.298 61.298 0 0 1 50.128 55.272 A 54.012 54.012 0 0 1 49.658 58.032 A 30.921 30.921 0 0 1 47.98 63.728 A 25.17 25.17 0 0 1 46.021 67.578 Q 43.457 71.68 39.16 74.097 A 17.705 17.705 0 0 1 34.356 75.9 Q 31.642 76.514 28.369 76.514 Q 25.439 76.514 22.632 75.806 Q 19.824 75.098 17.334 73.755 A 22.153 22.153 0 0 1 12.744 70.459 A 21.314 21.314 0 0 1 9.131 66.065 Q 9.047 65.897 8.963 65.675 A 6.199 6.199 0 0 1 8.936 65.601 A 1.685 1.685 0 0 1 8.859 65.322 A 1.327 1.327 0 0 1 8.838 65.088 A 1.748 1.748 0 0 1 9.203 64.022 A 2.326 2.326 0 0 1 9.351 63.843 A 1.698 1.698 0 0 1 10.534 63.287 A 2.324 2.324 0 0 1 10.693 63.282 A 1.63 1.63 0 0 1 11.597 63.55 A 2.734 2.734 0 0 1 12.305 64.209 Q 15.43 68.555 19.385 70.728 A 17.653 17.653 0 0 0 26.22 72.797 A 21.775 21.775 0 0 0 28.369 72.901 Q 32.804 72.901 35.981 71.642 A 13.13 13.13 0 0 0 37.769 70.777 A 15.301 15.301 0 0 0 43.481 64.966 A 22.904 22.904 0 0 0 45.521 60.011 A 29.675 29.675 0 0 0 46.314 56.348 A 65.771 65.771 0 0 0 46.996 49.267 A 77.638 77.638 0 0 0 47.07 45.85 L 47.07 39.649 A 79.877 79.877 0 0 1 47.295 33.755 A 88.575 88.575 0 0 1 47.363 32.886 A 31.575 31.575 0 0 1 48.706 26.05 A 25.24 25.24 0 0 1 51.733 19.702 Q 53.711 16.699 57.08 14.405 A 2.715 2.715 0 0 1 57.24 14.331 Q 57.331 14.293 57.436 14.255 A 5.547 5.547 0 0 1 57.568 14.209 Q 57.759 14.146 57.908 14.124 A 1.013 1.013 0 0 1 58.057 14.112 A 1.862 1.862 0 0 1 59.351 14.624 A 1.698 1.698 0 0 1 59.907 15.808 A 2.324 2.324 0 0 1 59.912 15.967 A 1.515 1.515 0 0 1 59.644 16.846 A 3.829 3.829 0 0 1 59.149 17.427 A 4.433 4.433 0 0 1 58.984 17.578 A 22.108 22.108 0 0 0 56.389 19.958 A 17.499 17.499 0 0 0 54.614 22.217 A 20.267 20.267 0 0 0 52.124 27.564 A 29.113 29.113 0 0 0 51.122 32.447 A 33.136 33.136 0 0 0 51.001 33.643 A 78.698 78.698 0 0 0 50.749 38.642 A 89.21 89.21 0 0 0 50.732 40.381 Z M 116.992 40.772 A 121.998 121.998 0 0 0 117.075 45.322 A 108.129 108.129 0 0 0 117.139 46.778 Q 117.285 49.658 117.529 52.295 A 106.366 106.366 0 0 0 120.496 46.074 A 120.375 120.375 0 0 0 121.436 43.872 A 103.429 103.429 0 0 0 124.707 34.839 Q 126.123 30.274 126.978 25.757 A 49.23 49.23 0 0 0 127.731 20.008 A 41.551 41.551 0 0 0 127.832 17.139 Q 127.832 12.707 127.283 10.21 A 9.91 9.91 0 0 0 126.904 8.887 A 7.386 7.386 0 0 0 126.468 7.917 Q 125.852 6.793 125.024 6.5 A 1.815 1.815 0 0 0 124.414 6.397 Q 123.425 6.397 122.504 7.715 A 6.608 6.608 0 0 0 122.437 7.813 A 11.087 11.087 0 0 0 121.754 8.991 Q 121.431 9.629 121.123 10.397 A 25.597 25.597 0 0 0 120.654 11.67 A 38.309 38.309 0 0 0 119.956 13.975 Q 119.525 15.564 119.141 17.432 A 82.5 82.5 0 0 0 118.372 21.773 A 99.273 99.273 0 0 0 117.993 24.561 A 137.207 137.207 0 0 0 117.407 30.466 A 154.776 154.776 0 0 0 117.261 32.52 A 127.769 127.769 0 0 0 116.992 40.772 Z M 141.455 40.772 A 121.998 121.998 0 0 0 141.538 45.322 A 108.129 108.129 0 0 0 141.602 46.778 Q 141.748 49.658 141.992 52.295 A 106.366 106.366 0 0 0 144.959 46.074 A 120.375 120.375 0 0 0 145.898 43.872 A 103.429 103.429 0 0 0 149.17 34.839 Q 150.586 30.274 151.44 25.757 A 49.23 49.23 0 0 0 152.194 20.008 A 41.551 41.551 0 0 0 152.295 17.139 Q 152.295 12.707 151.746 10.21 A 9.91 9.91 0 0 0 151.367 8.887 A 7.386 7.386 0 0 0 150.931 7.917 Q 150.315 6.793 149.487 6.5 A 1.815 1.815 0 0 0 148.877 6.397 Q 147.888 6.397 146.966 7.715 A 6.608 6.608 0 0 0 146.899 7.813 A 11.087 11.087 0 0 0 146.217 8.991 Q 145.894 9.629 145.586 10.397 A 25.597 25.597 0 0 0 145.117 11.67 A 38.309 38.309 0 0 0 144.419 13.975 Q 143.988 15.564 143.604 17.432 A 82.5 82.5 0 0 0 142.835 21.773 A 99.273 99.273 0 0 0 142.456 24.561 A 137.207 137.207 0 0 0 141.87 30.466 A 154.776 154.776 0 0 0 141.724 32.52 A 127.769 127.769 0 0 0 141.455 40.772 Z M 96.24 56.25 A 7.898 7.898 0 0 0 96.345 57.51 A 9.613 9.613 0 0 0 96.484 58.203 A 8.938 8.938 0 0 0 97.147 60.042 A 9.989 9.989 0 0 0 97.241 60.23 Q 97.754 61.231 98.511 62.134 A 7.363 7.363 0 0 0 100.293 63.672 A 14.227 14.227 0 0 0 100.439 61.792 A 13.078 13.078 0 0 0 100.439 61.67 A 18.976 18.976 0 0 0 100.244 58.985 Q 100.049 57.617 99.683 56.47 Q 99.316 55.323 98.779 54.615 A 2.141 2.141 0 0 0 98.406 54.227 A 1.41 1.41 0 0 0 97.51 53.907 A 0.551 0.551 0 0 0 97.32 53.945 Q 97.147 54.009 96.927 54.18 A 3.536 3.536 0 0 0 96.729 54.346 A 1.075 1.075 0 0 0 96.476 54.709 Q 96.311 55.075 96.262 55.683 A 7.007 7.007 0 0 0 96.24 56.25 Z M 176.758 56.25 A 7.898 7.898 0 0 0 176.863 57.51 A 9.613 9.613 0 0 0 177.002 58.203 A 8.938 8.938 0 0 0 177.665 60.042 A 9.989 9.989 0 0 0 177.759 60.23 Q 178.272 61.231 179.028 62.134 A 7.363 7.363 0 0 0 180.811 63.672 A 14.227 14.227 0 0 0 180.956 61.792 A 13.078 13.078 0 0 0 180.957 61.67 A 18.976 18.976 0 0 0 180.762 58.985 Q 180.566 57.617 180.2 56.47 Q 179.834 55.323 179.297 54.615 A 2.141 2.141 0 0 0 178.924 54.227 A 1.41 1.41 0 0 0 178.027 53.907 A 0.551 0.551 0 0 0 177.838 53.945 Q 177.665 54.009 177.444 54.18 A 3.536 3.536 0 0 0 177.246 54.346 A 1.075 1.075 0 0 0 176.994 54.709 Q 176.829 55.075 176.779 55.683 A 7.007 7.007 0 0 0 176.758 56.25 Z"/>
  </g>
</svg>